<svg width="47" height="51" viewBox="0 0 47 51" fill="none" xmlns="http://www.w3.org/2000/svg">
<path d="M46.6099 1.5697C46.6099 0.697649 45.9155 0 45.0475 0C44.1795 0 44.7003 6.5472e-07 44.5267 0.0872107H44.44L30.9864 5.75558H15.797L2.16992 0.0872107C1.99632 0.0872107 1.82274 0 1.56234 0C0.694375 0 0 0.697649 0 1.5697C0 2.44177 0 1.65691 0 1.74412C0 1.83133 3.12469 20.9294 3.12469 20.9294L0.0867967 31.3069C0.0867967 31.5685 0.0867967 31.6557 0.0867967 31.8302C0.0867967 32.4406 0.433984 32.9639 0.867968 33.2255L10.7628 38.2834C14.7555 40.7252 16.4046 43.5157 19.4424 47.0912L22.0464 50.0563V50.2306C22.4803 50.4922 22.8275 50.6667 23.2616 50.6667C23.6955 50.6667 24.1296 50.4922 24.3899 50.1434L26.9938 47.0912C30.0317 43.5157 31.6808 40.7252 35.6736 38.2834L45.5683 33.2255C46.0891 32.9639 46.3496 32.4406 46.3496 31.8302C46.3496 31.2197 46.3496 31.5685 46.3496 31.3942L43.3117 21.0167L46.4363 1.83133C46.4363 1.83133 46.4363 1.74412 46.4363 1.65691L46.6099 1.5697ZM42.0096 5.49401L40.2737 16.2203L34.5451 8.72053L42.0965 5.58125L42.0096 5.49401ZM16.231 9.76711H30.292L37.3227 19.0109H9.20046L16.231 9.76711ZM23.3483 34.2719L10.242 23.0223H36.4547L23.3483 34.2719ZM12.1516 8.63344L6.42296 16.1331L4.68704 5.40677L12.2383 8.5462L12.1516 8.63344ZM4.60024 30.2605L6.24936 25.2898L17.4461 35.3185L4.60024 30.2605ZM23.3483 44.3878L18.4009 38.4579L23.3483 39.1555L28.2957 38.4579L23.3483 44.3878ZM29.1637 35.3185L40.3605 25.2898L42.0096 30.2605L29.1637 35.3185Z" fill="white"/>
</svg>
